<svg xmlns="http://www.w3.org/2000/svg" xmlns:xlink="http://www.w3.org/1999/xlink" width="1890" zoomAndPan="magnify" viewBox="0 0 1417.5 1417.500002" height="1890" preserveAspectRatio="xMidYMid meet" version="1.0"><defs><clipPath id="8d430a76eb"><path d="M 0.367188 0.367188 L 1074.871094 0.367188 L 1074.871094 1074.871094 L 0.367188 1074.871094 Z M 0.367188 0.367188 " clip-rule="nonzero"/></clipPath><clipPath id="d9befd9e79"><path d="M 650.703125 650.894531 L 1104.351562 650.894531 L 1104.351562 1104.539062 L 650.703125 1104.539062 Z M 650.703125 650.894531 " clip-rule="nonzero"/></clipPath><clipPath id="d01795272a"><rect x="0" width="1105" y="0" height="1105"/></clipPath></defs><g transform="matrix(1, 0, 0, 1, 171, 171)"><g clip-path="url(#d01795272a)"><g clip-path="url(#8d430a76eb)"><path fill="#18191b" d="M 938.726562 180.585938 C 937.222656 178.316406 935.429688 176.367188 933.425781 174.703125 C 835.152344 67.570312 694.074219 0.289062 537.566406 0.289062 C 381.058594 0.289062 240.007812 67.570312 141.710938 174.703125 C 139.703125 176.367188 137.910156 178.34375 136.40625 180.585938 C 51.824219 275.5625 0.316406 400.628906 0.316406 537.515625 C 0.316406 833.753906 241.328125 1074.742188 537.539062 1074.742188 C 833.753906 1074.742188 1074.765625 833.730469 1074.765625 537.515625 C 1074.765625 400.628906 1023.285156 275.5625 938.671875 180.585938 Z M 919.023438 831.566406 C 882.152344 809.78125 836.050781 786.808594 781.636719 767.949219 C 805.824219 702.355469 819.40625 634.601562 822.253906 565.234375 L 1018.617188 565.234375 C 1012.917969 665.140625 976.652344 757.003906 919.023438 831.59375 Z M 56.546875 565.207031 L 250.214844 565.207031 C 253.089844 634.863281 266.75 702.910156 291.121094 768.769531 C 237.738281 787.46875 192.429688 810.070312 156.109375 831.539062 C 98.480469 756.953125 62.214844 665.117188 56.519531 565.179688 Z M 165.421875 231.777344 C 201.449219 252.378906 245.546875 273.636719 296.925781 291.175781 C 268.941406 361.726562 253.300781 434.835938 250.214844 509.820312 L 56.546875 509.820312 C 62.53125 404.613281 102.410156 308.34375 165.421875 231.777344 Z M 509.875 330.578125 L 509.875 509.820312 L 305.679688 509.820312 C 309.164062 434.257812 326.597656 366.394531 350.625 307.261719 C 398.730469 319.765625 451.980469 328.441406 509.898438 330.578125 Z M 373.992188 256.042969 C 418.457031 168.53125 474.398438 104.996094 509.875 69.839844 L 509.875 275.140625 C 460.84375 273.1875 415.453125 266.171875 373.992188 256.015625 Z M 565.261719 330.578125 C 622.175781 328.46875 674.636719 320.054688 722.109375 307.894531 C 746.007812 366.871094 763.308594 434.519531 766.789062 509.820312 L 565.261719 509.820312 Z M 565.261719 275.164062 L 565.261719 72.527344 C 600.894531 108.238281 655.332031 170.984375 698.742188 256.625 C 657.941406 266.460938 613.339844 273.238281 565.261719 275.164062 Z M 716.335938 174.253906 C 689.40625 130.894531 661.054688 94.710938 635.046875 65.59375 C 725.488281 84.238281 806.746094 128.335938 870.996094 190 C 838.105469 208.015625 798.703125 226.160156 753.363281 241.089844 C 742.3125 218.511719 729.996094 196.226562 716.335938 174.253906 Z M 356.109375 174.253906 C 342.605469 195.960938 330.394531 218.011719 319.449219 240.324219 C 275.085938 225.527344 236.445312 207.699219 204.136719 190 C 267.59375 129.101562 347.644531 85.347656 436.761719 66.304688 C 410.941406 95.289062 382.828125 131.238281 356.109375 174.253906 Z M 305.679688 565.207031 L 509.875 565.207031 L 509.875 727.359375 C 449.554688 729.574219 394.21875 738.910156 344.558594 752.257812 C 323.695312 696.871094 308.871094 634.257812 305.679688 565.234375 Z M 509.875 782.773438 L 509.875 1005.191406 C 472.394531 968.054688 412.023438 899.191406 366.5 803.792969 C 409.941406 792.636719 457.890625 784.855469 509.875 782.773438 Z M 565.261719 782.773438 C 616.296875 784.804688 663.425781 792.347656 706.257812 803.160156 C 661.765625 896.632812 603.003906 964.707031 565.261719 1002.5 Z M 565.261719 727.359375 L 565.261719 565.207031 L 766.789062 565.207031 C 763.625 633.992188 748.882812 696.371094 728.152344 751.597656 C 679.09375 738.59375 624.605469 729.523438 565.261719 727.332031 Z M 822.230469 509.820312 C 819.144531 435.101562 803.636719 362.253906 775.835938 291.964844 C 828.242188 274.269531 873.132812 252.695312 909.714844 231.777344 C 972.722656 308.34375 1012.601562 404.613281 1018.589844 509.820312 Z M 193.140625 874.109375 C 225.921875 855.355469 265.90625 836.050781 312.460938 819.988281 C 325.117188 847.363281 339.679688 874.292969 356.109375 900.800781 C 382.828125 943.789062 410.941406 979.738281 436.761719 1008.75 C 342.421875 988.601562 258.234375 940.730469 193.140625 874.136719 Z M 635.046875 1009.4375 C 661.054688 980.320312 689.40625 944.132812 716.335938 900.773438 C 732.949219 874.027344 747.613281 846.808594 760.355469 819.195312 C 807.855469 835.417969 848.65625 855.066406 881.996094 874.109375 C 816.136719 941.496094 730.734375 989.707031 635.046875 1009.4375 Z M 635.046875 1009.4375 " fill-opacity="1" fill-rule="nonzero"/></g><g clip-path="url(#d9befd9e79)"><path fill="#e21b1b" d="M 1104.351562 877.671875 C 1104.351562 881.382812 1104.257812 885.09375 1104.078125 888.800781 C 1103.894531 892.503906 1103.621094 896.207031 1103.257812 899.898438 C 1102.894531 903.59375 1102.441406 907.273438 1101.894531 910.945312 C 1101.351562 914.617188 1100.714844 918.273438 1099.992188 921.914062 C 1099.269531 925.550781 1098.453125 929.171875 1097.554688 932.773438 C 1096.652344 936.371094 1095.660156 939.949219 1094.582031 943.5 C 1093.507812 947.050781 1092.34375 950.574219 1091.089844 954.066406 C 1089.839844 957.5625 1088.503906 961.023438 1087.085938 964.453125 C 1085.664062 967.882812 1084.160156 971.273438 1082.574219 974.628906 C 1080.984375 977.984375 1079.316406 981.296875 1077.566406 984.570312 C 1075.816406 987.84375 1073.988281 991.070312 1072.082031 994.253906 C 1070.171875 997.4375 1068.1875 1000.570312 1066.125 1003.65625 C 1064.0625 1006.742188 1061.925781 1009.777344 1059.714844 1012.757812 C 1057.503906 1015.738281 1055.21875 1018.664062 1052.863281 1021.53125 C 1050.507812 1024.402344 1048.085938 1027.210938 1045.59375 1029.960938 C 1043.097656 1032.710938 1040.539062 1035.398438 1037.914062 1038.019531 C 1035.289062 1040.644531 1032.601562 1043.203125 1029.851562 1045.695312 C 1027.101562 1048.1875 1024.292969 1050.613281 1021.421875 1052.964844 C 1018.554688 1055.320312 1015.628906 1057.601562 1012.644531 1059.8125 C 1009.664062 1062.023438 1006.628906 1064.160156 1003.542969 1066.222656 C 1000.457031 1068.285156 997.320312 1070.269531 994.136719 1072.175781 C 990.953125 1074.085938 987.726562 1075.914062 984.449219 1077.664062 C 981.175781 1079.414062 977.863281 1081.082031 974.507812 1082.667969 C 971.152344 1084.253906 967.757812 1085.757812 964.328125 1087.179688 C 960.898438 1088.597656 957.4375 1089.933594 953.941406 1091.183594 C 950.445312 1092.433594 946.921875 1093.597656 943.371094 1094.675781 C 939.820312 1095.753906 936.242188 1096.742188 932.640625 1097.644531 C 929.039062 1098.546875 925.417969 1099.359375 921.777344 1100.082031 C 918.136719 1100.808594 914.480469 1101.441406 910.808594 1101.984375 C 907.136719 1102.53125 903.453125 1102.984375 899.761719 1103.347656 C 896.066406 1103.710938 892.363281 1103.984375 888.65625 1104.167969 C 884.949219 1104.347656 881.238281 1104.441406 877.527344 1104.441406 C 873.816406 1104.441406 870.105469 1104.347656 866.398438 1104.167969 C 862.691406 1103.984375 858.988281 1103.710938 855.292969 1103.347656 C 851.601562 1102.984375 847.917969 1102.53125 844.246094 1101.984375 C 840.574219 1101.441406 836.917969 1100.808594 833.277344 1100.082031 C 829.636719 1099.359375 826.015625 1098.546875 822.414062 1097.644531 C 818.8125 1096.742188 815.234375 1095.753906 811.683594 1094.675781 C 808.132812 1093.597656 804.609375 1092.433594 801.113281 1091.183594 C 797.617188 1089.933594 794.15625 1088.597656 790.726562 1087.179688 C 787.296875 1085.757812 783.902344 1084.253906 780.546875 1082.667969 C 777.191406 1081.082031 773.878906 1079.414062 770.605469 1077.664062 C 767.328125 1075.914062 764.101562 1074.085938 760.917969 1072.175781 C 757.734375 1070.269531 754.597656 1068.285156 751.511719 1066.222656 C 748.425781 1064.160156 745.390625 1062.023438 742.410156 1059.8125 C 739.425781 1057.601562 736.5 1055.320312 733.632812 1052.964844 C 730.761719 1050.613281 727.953125 1048.1875 725.203125 1045.695312 C 722.453125 1043.203125 719.765625 1040.644531 717.140625 1038.019531 C 714.515625 1035.398438 711.957031 1032.710938 709.460938 1029.960938 C 706.96875 1027.210938 704.546875 1024.402344 702.191406 1021.53125 C 699.835938 1018.664062 697.550781 1015.738281 695.339844 1012.757812 C 693.128906 1009.777344 690.992188 1006.742188 688.929688 1003.65625 C 686.867188 1000.570312 684.882812 997.4375 682.972656 994.253906 C 681.066406 991.070312 679.238281 987.84375 677.488281 984.570312 C 675.738281 981.296875 674.070312 977.984375 672.480469 974.628906 C 670.894531 971.273438 669.390625 967.882812 667.96875 964.453125 C 666.550781 961.023438 665.214844 957.5625 663.964844 954.066406 C 662.710938 950.574219 661.546875 947.050781 660.472656 943.5 C 659.394531 939.949219 658.402344 936.371094 657.5 932.773438 C 656.601562 929.171875 655.785156 925.550781 655.0625 921.914062 C 654.339844 918.273438 653.703125 914.617188 653.160156 910.945312 C 652.613281 907.273438 652.160156 903.59375 651.796875 899.898438 C 651.433594 896.207031 651.160156 892.503906 650.976562 888.800781 C 650.796875 885.09375 650.703125 881.382812 650.703125 877.671875 C 650.703125 873.960938 650.796875 870.25 650.976562 866.546875 C 651.160156 862.839844 651.433594 859.136719 651.796875 855.445312 C 652.160156 851.75 652.613281 848.070312 653.160156 844.398438 C 653.703125 840.726562 654.339844 837.070312 655.0625 833.433594 C 655.785156 829.792969 656.601562 826.171875 657.5 822.570312 C 658.402344 818.972656 659.394531 815.394531 660.472656 811.84375 C 661.546875 808.292969 662.710938 804.769531 663.964844 801.277344 C 665.214844 797.78125 666.550781 794.320312 667.96875 790.890625 C 669.390625 787.460938 670.894531 784.070312 672.480469 780.714844 C 674.070312 777.359375 675.738281 774.046875 677.488281 770.773438 C 679.238281 767.5 681.066406 764.273438 682.972656 761.089844 C 684.882812 757.90625 686.867188 754.773438 688.929688 751.6875 C 690.992188 748.601562 693.128906 745.566406 695.339844 742.585938 C 697.550781 739.605469 699.835938 736.679688 702.191406 733.8125 C 704.546875 730.941406 706.96875 728.132812 709.460938 725.382812 C 711.957031 722.632812 714.515625 719.945312 717.140625 717.324219 C 719.765625 714.699219 722.453125 712.140625 725.203125 709.648438 C 727.953125 707.15625 730.761719 704.730469 733.632812 702.378906 C 736.5 700.023438 739.425781 697.742188 742.410156 695.53125 C 745.390625 693.320312 748.425781 691.183594 751.511719 689.121094 C 754.597656 687.058594 757.734375 685.074219 760.917969 683.167969 C 764.101562 681.257812 767.328125 679.429688 770.605469 677.679688 C 773.878906 675.929688 777.191406 674.261719 780.546875 672.675781 C 783.902344 671.089844 787.296875 669.585938 790.726562 668.164062 C 794.15625 666.746094 797.617188 665.410156 801.113281 664.160156 C 804.609375 662.910156 808.132812 661.746094 811.683594 660.667969 C 815.234375 659.589844 818.8125 658.601562 822.414062 657.699219 C 826.015625 656.796875 829.636719 655.984375 833.277344 655.261719 C 836.917969 654.535156 840.574219 653.902344 844.246094 653.359375 C 847.917969 652.8125 851.601562 652.359375 855.292969 651.996094 C 858.988281 651.632812 862.691406 651.359375 866.398438 651.175781 C 870.105469 650.996094 873.816406 650.902344 877.527344 650.902344 C 881.238281 650.902344 884.949219 650.996094 888.65625 651.175781 C 892.363281 651.359375 896.066406 651.632812 899.761719 651.996094 C 903.453125 652.359375 907.136719 652.8125 910.808594 653.359375 C 914.480469 653.902344 918.136719 654.535156 921.777344 655.261719 C 925.417969 655.984375 929.039062 656.796875 932.640625 657.699219 C 936.242188 658.601562 939.820312 659.589844 943.371094 660.667969 C 946.921875 661.746094 950.445312 662.910156 953.941406 664.160156 C 957.4375 665.410156 960.898438 666.746094 964.328125 668.164062 C 967.757812 669.585938 971.152344 671.089844 974.507812 672.675781 C 977.863281 674.261719 981.175781 675.929688 984.449219 677.679688 C 987.726562 679.429688 990.953125 681.257812 994.136719 683.167969 C 997.320312 685.074219 1000.457031 687.058594 1003.542969 689.121094 C 1006.628906 691.183594 1009.664062 693.320312 1012.644531 695.53125 C 1015.628906 697.742188 1018.554688 700.023438 1021.421875 702.378906 C 1024.292969 704.730469 1027.101562 707.15625 1029.851562 709.648438 C 1032.601562 712.140625 1035.289062 714.699219 1037.914062 717.324219 C 1040.539062 719.945312 1043.097656 722.632812 1045.59375 725.382812 C 1048.085938 728.132812 1050.507812 730.941406 1052.863281 733.8125 C 1055.21875 736.679688 1057.503906 739.605469 1059.714844 742.585938 C 1061.925781 745.566406 1064.0625 748.601562 1066.125 751.6875 C 1068.1875 754.773438 1070.171875 757.90625 1072.082031 761.089844 C 1073.988281 764.273438 1075.816406 767.5 1077.566406 770.773438 C 1079.316406 774.046875 1080.984375 777.359375 1082.574219 780.714844 C 1084.160156 784.070312 1085.664062 787.460938 1087.085938 790.890625 C 1088.503906 794.320312 1089.839844 797.78125 1091.089844 801.277344 C 1092.34375 804.769531 1093.507812 808.292969 1094.582031 811.84375 C 1095.660156 815.394531 1096.652344 818.972656 1097.554688 822.570312 C 1098.453125 826.171875 1099.269531 829.792969 1099.992188 833.433594 C 1100.714844 837.070312 1101.351562 840.726562 1101.894531 844.398438 C 1102.441406 848.070312 1102.894531 851.75 1103.257812 855.445312 C 1103.621094 859.136719 1103.894531 862.839844 1104.078125 866.546875 C 1104.257812 870.25 1104.351562 873.960938 1104.351562 877.671875 Z M 1104.351562 877.671875 " fill-opacity="1" fill-rule="nonzero"/></g><path fill="#ffffff" d="M 770.507812 805.675781 L 805.589844 770.582031 L 984.566406 949.628906 L 949.488281 984.722656 Z M 770.507812 805.675781 " fill-opacity="1" fill-rule="nonzero"/><path fill="#ffffff" d="M 770.496094 949.621094 L 949.46875 770.566406 L 984.550781 805.660156 L 805.574219 984.714844 Z M 770.496094 949.621094 " fill-opacity="1" fill-rule="nonzero"/></g></g></svg>